G04 #@! TF.GenerationSoftware,KiCad,Pcbnew,(5.1.4-0-10_14)*
G04 #@! TF.CreationDate,2019-10-28T18:43:38+01:00*
G04 #@! TF.ProjectId,328RFStamp,33323852-4653-4746-916d-702e6b696361,rev?*
G04 #@! TF.SameCoordinates,Original*
G04 #@! TF.FileFunction,Soldermask,Top*
G04 #@! TF.FilePolarity,Negative*
%FSLAX46Y46*%
G04 Gerber Fmt 4.6, Leading zero omitted, Abs format (unit mm)*
G04 Created by KiCad (PCBNEW (5.1.4-0-10_14)) date 2019-10-28 18:43:38*
%MOMM*%
%LPD*%
G04 APERTURE LIST*
%ADD10C,0.100000*%
G04 APERTURE END LIST*
D10*
G36*
X52517274Y-61458065D02*
G01*
X52554967Y-61469499D01*
X52589703Y-61488066D01*
X52620148Y-61513052D01*
X52645134Y-61543497D01*
X52663701Y-61578233D01*
X52675135Y-61615926D01*
X52679600Y-61661261D01*
X52679600Y-62747939D01*
X52675135Y-62793274D01*
X52663701Y-62830967D01*
X52645134Y-62865703D01*
X52620148Y-62896148D01*
X52589703Y-62921134D01*
X52554967Y-62939701D01*
X52517274Y-62951135D01*
X52471939Y-62955600D01*
X51635261Y-62955600D01*
X51589926Y-62951135D01*
X51552233Y-62939701D01*
X51517497Y-62921134D01*
X51487052Y-62896148D01*
X51462066Y-62865703D01*
X51443499Y-62830967D01*
X51432065Y-62793274D01*
X51427600Y-62747939D01*
X51427600Y-61661261D01*
X51432065Y-61615926D01*
X51443499Y-61578233D01*
X51462066Y-61543497D01*
X51487052Y-61513052D01*
X51517497Y-61488066D01*
X51552233Y-61469499D01*
X51589926Y-61458065D01*
X51635261Y-61453600D01*
X52471939Y-61453600D01*
X52517274Y-61458065D01*
X52517274Y-61458065D01*
G37*
G36*
X50467274Y-61458065D02*
G01*
X50504967Y-61469499D01*
X50539703Y-61488066D01*
X50570148Y-61513052D01*
X50595134Y-61543497D01*
X50613701Y-61578233D01*
X50625135Y-61615926D01*
X50629600Y-61661261D01*
X50629600Y-62747939D01*
X50625135Y-62793274D01*
X50613701Y-62830967D01*
X50595134Y-62865703D01*
X50570148Y-62896148D01*
X50539703Y-62921134D01*
X50504967Y-62939701D01*
X50467274Y-62951135D01*
X50421939Y-62955600D01*
X49585261Y-62955600D01*
X49539926Y-62951135D01*
X49502233Y-62939701D01*
X49467497Y-62921134D01*
X49437052Y-62896148D01*
X49412066Y-62865703D01*
X49393499Y-62830967D01*
X49382065Y-62793274D01*
X49377600Y-62747939D01*
X49377600Y-61661261D01*
X49382065Y-61615926D01*
X49393499Y-61578233D01*
X49412066Y-61543497D01*
X49437052Y-61513052D01*
X49467497Y-61488066D01*
X49502233Y-61469499D01*
X49539926Y-61458065D01*
X49585261Y-61453600D01*
X50421939Y-61453600D01*
X50467274Y-61458065D01*
X50467274Y-61458065D01*
G37*
G36*
X45984174Y-61432665D02*
G01*
X46021867Y-61444099D01*
X46056603Y-61462666D01*
X46087048Y-61487652D01*
X46112034Y-61518097D01*
X46130601Y-61552833D01*
X46142035Y-61590526D01*
X46146500Y-61635861D01*
X46146500Y-62722539D01*
X46142035Y-62767874D01*
X46130601Y-62805567D01*
X46112034Y-62840303D01*
X46087048Y-62870748D01*
X46056603Y-62895734D01*
X46021867Y-62914301D01*
X45984174Y-62925735D01*
X45938839Y-62930200D01*
X45102161Y-62930200D01*
X45056826Y-62925735D01*
X45019133Y-62914301D01*
X44984397Y-62895734D01*
X44953952Y-62870748D01*
X44928966Y-62840303D01*
X44910399Y-62805567D01*
X44898965Y-62767874D01*
X44894500Y-62722539D01*
X44894500Y-61635861D01*
X44898965Y-61590526D01*
X44910399Y-61552833D01*
X44928966Y-61518097D01*
X44953952Y-61487652D01*
X44984397Y-61462666D01*
X45019133Y-61444099D01*
X45056826Y-61432665D01*
X45102161Y-61428200D01*
X45938839Y-61428200D01*
X45984174Y-61432665D01*
X45984174Y-61432665D01*
G37*
G36*
X48034174Y-61432665D02*
G01*
X48071867Y-61444099D01*
X48106603Y-61462666D01*
X48137048Y-61487652D01*
X48162034Y-61518097D01*
X48180601Y-61552833D01*
X48192035Y-61590526D01*
X48196500Y-61635861D01*
X48196500Y-62722539D01*
X48192035Y-62767874D01*
X48180601Y-62805567D01*
X48162034Y-62840303D01*
X48137048Y-62870748D01*
X48106603Y-62895734D01*
X48071867Y-62914301D01*
X48034174Y-62925735D01*
X47988839Y-62930200D01*
X47152161Y-62930200D01*
X47106826Y-62925735D01*
X47069133Y-62914301D01*
X47034397Y-62895734D01*
X47003952Y-62870748D01*
X46978966Y-62840303D01*
X46960399Y-62805567D01*
X46948965Y-62767874D01*
X46944500Y-62722539D01*
X46944500Y-61635861D01*
X46948965Y-61590526D01*
X46960399Y-61552833D01*
X46978966Y-61518097D01*
X47003952Y-61487652D01*
X47034397Y-61462666D01*
X47069133Y-61444099D01*
X47106826Y-61432665D01*
X47152161Y-61428200D01*
X47988839Y-61428200D01*
X48034174Y-61432665D01*
X48034174Y-61432665D01*
G37*
G36*
X43801798Y-61432047D02*
G01*
X43837367Y-61442837D01*
X43870139Y-61460354D01*
X43898869Y-61483931D01*
X43922446Y-61512661D01*
X43939963Y-61545433D01*
X43950753Y-61581002D01*
X43955000Y-61624125D01*
X43955000Y-62683475D01*
X43950753Y-62726598D01*
X43939963Y-62762167D01*
X43922446Y-62794939D01*
X43898869Y-62823669D01*
X43870139Y-62847246D01*
X43837367Y-62864763D01*
X43801798Y-62875553D01*
X43758675Y-62879800D01*
X42474325Y-62879800D01*
X42431202Y-62875553D01*
X42395633Y-62864763D01*
X42362861Y-62847246D01*
X42334131Y-62823669D01*
X42310554Y-62794939D01*
X42293037Y-62762167D01*
X42282247Y-62726598D01*
X42278000Y-62683475D01*
X42278000Y-61624125D01*
X42282247Y-61581002D01*
X42293037Y-61545433D01*
X42310554Y-61512661D01*
X42334131Y-61483931D01*
X42362861Y-61460354D01*
X42395633Y-61442837D01*
X42431202Y-61432047D01*
X42474325Y-61427800D01*
X43758675Y-61427800D01*
X43801798Y-61432047D01*
X43801798Y-61432047D01*
G37*
G36*
X40926798Y-61432047D02*
G01*
X40962367Y-61442837D01*
X40995139Y-61460354D01*
X41023869Y-61483931D01*
X41047446Y-61512661D01*
X41064963Y-61545433D01*
X41075753Y-61581002D01*
X41080000Y-61624125D01*
X41080000Y-62683475D01*
X41075753Y-62726598D01*
X41064963Y-62762167D01*
X41047446Y-62794939D01*
X41023869Y-62823669D01*
X40995139Y-62847246D01*
X40962367Y-62864763D01*
X40926798Y-62875553D01*
X40883675Y-62879800D01*
X39599325Y-62879800D01*
X39556202Y-62875553D01*
X39520633Y-62864763D01*
X39487861Y-62847246D01*
X39459131Y-62823669D01*
X39435554Y-62794939D01*
X39418037Y-62762167D01*
X39407247Y-62726598D01*
X39403000Y-62683475D01*
X39403000Y-61624125D01*
X39407247Y-61581002D01*
X39418037Y-61545433D01*
X39435554Y-61512661D01*
X39459131Y-61483931D01*
X39487861Y-61460354D01*
X39520633Y-61442837D01*
X39556202Y-61432047D01*
X39599325Y-61427800D01*
X40883675Y-61427800D01*
X40926798Y-61432047D01*
X40926798Y-61432047D01*
G37*
G36*
X42509674Y-59070465D02*
G01*
X42547367Y-59081899D01*
X42582103Y-59100466D01*
X42612548Y-59125452D01*
X42637534Y-59155897D01*
X42656101Y-59190633D01*
X42667535Y-59228326D01*
X42672000Y-59273661D01*
X42672000Y-60360339D01*
X42667535Y-60405674D01*
X42656101Y-60443367D01*
X42637534Y-60478103D01*
X42612548Y-60508548D01*
X42582103Y-60533534D01*
X42547367Y-60552101D01*
X42509674Y-60563535D01*
X42464339Y-60568000D01*
X41627661Y-60568000D01*
X41582326Y-60563535D01*
X41544633Y-60552101D01*
X41509897Y-60533534D01*
X41479452Y-60508548D01*
X41454466Y-60478103D01*
X41435899Y-60443367D01*
X41424465Y-60405674D01*
X41420000Y-60360339D01*
X41420000Y-59273661D01*
X41424465Y-59228326D01*
X41435899Y-59190633D01*
X41454466Y-59155897D01*
X41479452Y-59125452D01*
X41509897Y-59100466D01*
X41544633Y-59081899D01*
X41582326Y-59070465D01*
X41627661Y-59066000D01*
X42464339Y-59066000D01*
X42509674Y-59070465D01*
X42509674Y-59070465D01*
G37*
G36*
X40459674Y-59070465D02*
G01*
X40497367Y-59081899D01*
X40532103Y-59100466D01*
X40562548Y-59125452D01*
X40587534Y-59155897D01*
X40606101Y-59190633D01*
X40617535Y-59228326D01*
X40622000Y-59273661D01*
X40622000Y-60360339D01*
X40617535Y-60405674D01*
X40606101Y-60443367D01*
X40587534Y-60478103D01*
X40562548Y-60508548D01*
X40532103Y-60533534D01*
X40497367Y-60552101D01*
X40459674Y-60563535D01*
X40414339Y-60568000D01*
X39577661Y-60568000D01*
X39532326Y-60563535D01*
X39494633Y-60552101D01*
X39459897Y-60533534D01*
X39429452Y-60508548D01*
X39404466Y-60478103D01*
X39385899Y-60443367D01*
X39374465Y-60405674D01*
X39370000Y-60360339D01*
X39370000Y-59273661D01*
X39374465Y-59228326D01*
X39385899Y-59190633D01*
X39404466Y-59155897D01*
X39429452Y-59125452D01*
X39459897Y-59100466D01*
X39494633Y-59081899D01*
X39532326Y-59070465D01*
X39577661Y-59066000D01*
X40414339Y-59066000D01*
X40459674Y-59070465D01*
X40459674Y-59070465D01*
G37*
G36*
X49850274Y-58918065D02*
G01*
X49887967Y-58929499D01*
X49922703Y-58948066D01*
X49953148Y-58973052D01*
X49978134Y-59003497D01*
X49996701Y-59038233D01*
X50008135Y-59075926D01*
X50012600Y-59121261D01*
X50012600Y-60207939D01*
X50008135Y-60253274D01*
X49996701Y-60290967D01*
X49978134Y-60325703D01*
X49953148Y-60356148D01*
X49922703Y-60381134D01*
X49887967Y-60399701D01*
X49850274Y-60411135D01*
X49804939Y-60415600D01*
X48968261Y-60415600D01*
X48922926Y-60411135D01*
X48885233Y-60399701D01*
X48850497Y-60381134D01*
X48820052Y-60356148D01*
X48795066Y-60325703D01*
X48776499Y-60290967D01*
X48765065Y-60253274D01*
X48760600Y-60207939D01*
X48760600Y-59121261D01*
X48765065Y-59075926D01*
X48776499Y-59038233D01*
X48795066Y-59003497D01*
X48820052Y-58973052D01*
X48850497Y-58948066D01*
X48885233Y-58929499D01*
X48922926Y-58918065D01*
X48968261Y-58913600D01*
X49804939Y-58913600D01*
X49850274Y-58918065D01*
X49850274Y-58918065D01*
G37*
G36*
X47800274Y-58918065D02*
G01*
X47837967Y-58929499D01*
X47872703Y-58948066D01*
X47903148Y-58973052D01*
X47928134Y-59003497D01*
X47946701Y-59038233D01*
X47958135Y-59075926D01*
X47962600Y-59121261D01*
X47962600Y-60207939D01*
X47958135Y-60253274D01*
X47946701Y-60290967D01*
X47928134Y-60325703D01*
X47903148Y-60356148D01*
X47872703Y-60381134D01*
X47837967Y-60399701D01*
X47800274Y-60411135D01*
X47754939Y-60415600D01*
X46918261Y-60415600D01*
X46872926Y-60411135D01*
X46835233Y-60399701D01*
X46800497Y-60381134D01*
X46770052Y-60356148D01*
X46745066Y-60325703D01*
X46726499Y-60290967D01*
X46715065Y-60253274D01*
X46710600Y-60207939D01*
X46710600Y-59121261D01*
X46715065Y-59075926D01*
X46726499Y-59038233D01*
X46745066Y-59003497D01*
X46770052Y-58973052D01*
X46800497Y-58948066D01*
X46835233Y-58929499D01*
X46872926Y-58918065D01*
X46918261Y-58913600D01*
X47754939Y-58913600D01*
X47800274Y-58918065D01*
X47800274Y-58918065D01*
G37*
G36*
X55102200Y-60313200D02*
G01*
X53000200Y-60313200D01*
X53000200Y-58711200D01*
X55102200Y-58711200D01*
X55102200Y-60313200D01*
X55102200Y-60313200D01*
G37*
G36*
X50370000Y-58225100D02*
G01*
X44118000Y-58225100D01*
X44118000Y-56523100D01*
X50370000Y-56523100D01*
X50370000Y-58225100D01*
X50370000Y-58225100D01*
G37*
G36*
X51849721Y-57026574D02*
G01*
X51949995Y-57068109D01*
X51964214Y-57077610D01*
X52040242Y-57128410D01*
X52116990Y-57205158D01*
X52116991Y-57205160D01*
X52177291Y-57295405D01*
X52218826Y-57395679D01*
X52240000Y-57502130D01*
X52240000Y-57610670D01*
X52218826Y-57717121D01*
X52177291Y-57817395D01*
X52177290Y-57817396D01*
X52116990Y-57907642D01*
X52040242Y-57984390D01*
X51994812Y-58014745D01*
X51949995Y-58044691D01*
X51849721Y-58086226D01*
X51743270Y-58107400D01*
X51634730Y-58107400D01*
X51528279Y-58086226D01*
X51428005Y-58044691D01*
X51383188Y-58014745D01*
X51337758Y-57984390D01*
X51261010Y-57907642D01*
X51200710Y-57817396D01*
X51200709Y-57817395D01*
X51159174Y-57717121D01*
X51138000Y-57610670D01*
X51138000Y-57502130D01*
X51159174Y-57395679D01*
X51200709Y-57295405D01*
X51261009Y-57205160D01*
X51261010Y-57205158D01*
X51337758Y-57128410D01*
X51413786Y-57077610D01*
X51428005Y-57068109D01*
X51528279Y-57026574D01*
X51634730Y-57005400D01*
X51743270Y-57005400D01*
X51849721Y-57026574D01*
X51849721Y-57026574D01*
G37*
G36*
X42959721Y-56975774D02*
G01*
X43059995Y-57017309D01*
X43059996Y-57017310D01*
X43150242Y-57077610D01*
X43226990Y-57154358D01*
X43226991Y-57154360D01*
X43287291Y-57244605D01*
X43328826Y-57344879D01*
X43350000Y-57451330D01*
X43350000Y-57559870D01*
X43328826Y-57666321D01*
X43287291Y-57766595D01*
X43287290Y-57766596D01*
X43226990Y-57856842D01*
X43150242Y-57933590D01*
X43104812Y-57963945D01*
X43059995Y-57993891D01*
X42959721Y-58035426D01*
X42853270Y-58056600D01*
X42744730Y-58056600D01*
X42638279Y-58035426D01*
X42538005Y-57993891D01*
X42493188Y-57963945D01*
X42447758Y-57933590D01*
X42371010Y-57856842D01*
X42310710Y-57766596D01*
X42310709Y-57766595D01*
X42269174Y-57666321D01*
X42248000Y-57559870D01*
X42248000Y-57451330D01*
X42269174Y-57344879D01*
X42310709Y-57244605D01*
X42371009Y-57154360D01*
X42371010Y-57154358D01*
X42447758Y-57077610D01*
X42538004Y-57017310D01*
X42538005Y-57017309D01*
X42638279Y-56975774D01*
X42744730Y-56954600D01*
X42853270Y-56954600D01*
X42959721Y-56975774D01*
X42959721Y-56975774D01*
G37*
G36*
X39187213Y-56121702D02*
G01*
X39258321Y-56128705D01*
X39395172Y-56170219D01*
X39395175Y-56170220D01*
X39521294Y-56237632D01*
X39631843Y-56328357D01*
X39722568Y-56438906D01*
X39789980Y-56565025D01*
X39789981Y-56565028D01*
X39831495Y-56701879D01*
X39845512Y-56844200D01*
X39831495Y-56986521D01*
X39806745Y-57068109D01*
X39789980Y-57123375D01*
X39722568Y-57249494D01*
X39631843Y-57360043D01*
X39521294Y-57450768D01*
X39395175Y-57518180D01*
X39395172Y-57518181D01*
X39258321Y-57559695D01*
X39187213Y-57566698D01*
X39151660Y-57570200D01*
X39080340Y-57570200D01*
X39044787Y-57566698D01*
X38973679Y-57559695D01*
X38836828Y-57518181D01*
X38836825Y-57518180D01*
X38710706Y-57450768D01*
X38600157Y-57360043D01*
X38509432Y-57249494D01*
X38442020Y-57123375D01*
X38425255Y-57068109D01*
X38400505Y-56986521D01*
X38386488Y-56844200D01*
X38400505Y-56701879D01*
X38442019Y-56565028D01*
X38442020Y-56565025D01*
X38509432Y-56438906D01*
X38600157Y-56328357D01*
X38710706Y-56237632D01*
X38836825Y-56170220D01*
X38836828Y-56170219D01*
X38973679Y-56128705D01*
X39044787Y-56121702D01*
X39080340Y-56118200D01*
X39151660Y-56118200D01*
X39187213Y-56121702D01*
X39187213Y-56121702D01*
G37*
G36*
X43845000Y-56250100D02*
G01*
X42143000Y-56250100D01*
X42143000Y-49998100D01*
X43845000Y-49998100D01*
X43845000Y-56250100D01*
X43845000Y-56250100D01*
G37*
G36*
X52345000Y-56250100D02*
G01*
X50643000Y-56250100D01*
X50643000Y-49998100D01*
X52345000Y-49998100D01*
X52345000Y-56250100D01*
X52345000Y-56250100D01*
G37*
G36*
X39187213Y-54121702D02*
G01*
X39258321Y-54128705D01*
X39395172Y-54170219D01*
X39395175Y-54170220D01*
X39521294Y-54237632D01*
X39631843Y-54328357D01*
X39722568Y-54438906D01*
X39789980Y-54565025D01*
X39789981Y-54565028D01*
X39831495Y-54701879D01*
X39845512Y-54844200D01*
X39831495Y-54986521D01*
X39789981Y-55123372D01*
X39789980Y-55123375D01*
X39722568Y-55249494D01*
X39631843Y-55360043D01*
X39521294Y-55450768D01*
X39395175Y-55518180D01*
X39395172Y-55518181D01*
X39258321Y-55559695D01*
X39187213Y-55566698D01*
X39151660Y-55570200D01*
X39080340Y-55570200D01*
X39044787Y-55566698D01*
X38973679Y-55559695D01*
X38836828Y-55518181D01*
X38836825Y-55518180D01*
X38710706Y-55450768D01*
X38600157Y-55360043D01*
X38509432Y-55249494D01*
X38442020Y-55123375D01*
X38442019Y-55123372D01*
X38400505Y-54986521D01*
X38386488Y-54844200D01*
X38400505Y-54701879D01*
X38442019Y-54565028D01*
X38442020Y-54565025D01*
X38509432Y-54438906D01*
X38600157Y-54328357D01*
X38710706Y-54237632D01*
X38836825Y-54170220D01*
X38836828Y-54170219D01*
X38973679Y-54128705D01*
X39044787Y-54121702D01*
X39080340Y-54118200D01*
X39151660Y-54118200D01*
X39187213Y-54121702D01*
X39187213Y-54121702D01*
G37*
G36*
X39187213Y-52121702D02*
G01*
X39258321Y-52128705D01*
X39395172Y-52170219D01*
X39395175Y-52170220D01*
X39521294Y-52237632D01*
X39631843Y-52328357D01*
X39722568Y-52438906D01*
X39789980Y-52565025D01*
X39789981Y-52565028D01*
X39831495Y-52701879D01*
X39845512Y-52844200D01*
X39831495Y-52986521D01*
X39812208Y-53050100D01*
X39789980Y-53123375D01*
X39722568Y-53249494D01*
X39631843Y-53360043D01*
X39521294Y-53450768D01*
X39395175Y-53518180D01*
X39395172Y-53518181D01*
X39258321Y-53559695D01*
X39187213Y-53566698D01*
X39151660Y-53570200D01*
X39080340Y-53570200D01*
X39044787Y-53566698D01*
X38973679Y-53559695D01*
X38836828Y-53518181D01*
X38836825Y-53518180D01*
X38710706Y-53450768D01*
X38600157Y-53360043D01*
X38509432Y-53249494D01*
X38442020Y-53123375D01*
X38419792Y-53050100D01*
X38400505Y-52986521D01*
X38386488Y-52844200D01*
X38400505Y-52701879D01*
X38442019Y-52565028D01*
X38442020Y-52565025D01*
X38509432Y-52438906D01*
X38600157Y-52328357D01*
X38710706Y-52237632D01*
X38836825Y-52170220D01*
X38836828Y-52170219D01*
X38973679Y-52128705D01*
X39044787Y-52121702D01*
X39080340Y-52118200D01*
X39151660Y-52118200D01*
X39187213Y-52121702D01*
X39187213Y-52121702D01*
G37*
G36*
X54639874Y-52016265D02*
G01*
X54677567Y-52027699D01*
X54712303Y-52046266D01*
X54742748Y-52071252D01*
X54767734Y-52101697D01*
X54786301Y-52136433D01*
X54797735Y-52174126D01*
X54802200Y-52219461D01*
X54802200Y-53056139D01*
X54797735Y-53101474D01*
X54786301Y-53139167D01*
X54767734Y-53173903D01*
X54742748Y-53204348D01*
X54712303Y-53229334D01*
X54677567Y-53247901D01*
X54639874Y-53259335D01*
X54594539Y-53263800D01*
X53507861Y-53263800D01*
X53462526Y-53259335D01*
X53424833Y-53247901D01*
X53390097Y-53229334D01*
X53359652Y-53204348D01*
X53334666Y-53173903D01*
X53316099Y-53139167D01*
X53304665Y-53101474D01*
X53300200Y-53056139D01*
X53300200Y-52219461D01*
X53304665Y-52174126D01*
X53316099Y-52136433D01*
X53334666Y-52101697D01*
X53359652Y-52071252D01*
X53390097Y-52046266D01*
X53424833Y-52027699D01*
X53462526Y-52016265D01*
X53507861Y-52011800D01*
X54594539Y-52011800D01*
X54639874Y-52016265D01*
X54639874Y-52016265D01*
G37*
G36*
X39187213Y-50121702D02*
G01*
X39258321Y-50128705D01*
X39392673Y-50169461D01*
X39395175Y-50170220D01*
X39521294Y-50237632D01*
X39631843Y-50328357D01*
X39722568Y-50438906D01*
X39789980Y-50565025D01*
X39789981Y-50565028D01*
X39831495Y-50701879D01*
X39845512Y-50844200D01*
X39831495Y-50986521D01*
X39789981Y-51123372D01*
X39789980Y-51123375D01*
X39722568Y-51249494D01*
X39631843Y-51360043D01*
X39521294Y-51450768D01*
X39395175Y-51518180D01*
X39395172Y-51518181D01*
X39258321Y-51559695D01*
X39187213Y-51566698D01*
X39151660Y-51570200D01*
X39080340Y-51570200D01*
X39044787Y-51566698D01*
X38973679Y-51559695D01*
X38836828Y-51518181D01*
X38836825Y-51518180D01*
X38710706Y-51450768D01*
X38600157Y-51360043D01*
X38509432Y-51249494D01*
X38442020Y-51123375D01*
X38442019Y-51123372D01*
X38400505Y-50986521D01*
X38386488Y-50844200D01*
X38400505Y-50701879D01*
X38442019Y-50565028D01*
X38442020Y-50565025D01*
X38509432Y-50438906D01*
X38600157Y-50328357D01*
X38710706Y-50237632D01*
X38836825Y-50170220D01*
X38839327Y-50169461D01*
X38973679Y-50128705D01*
X39044787Y-50121702D01*
X39080340Y-50118200D01*
X39151660Y-50118200D01*
X39187213Y-50121702D01*
X39187213Y-50121702D01*
G37*
G36*
X54639874Y-49966265D02*
G01*
X54677567Y-49977699D01*
X54712303Y-49996266D01*
X54742748Y-50021252D01*
X54767734Y-50051697D01*
X54786301Y-50086433D01*
X54797735Y-50124126D01*
X54802200Y-50169461D01*
X54802200Y-51006139D01*
X54797735Y-51051474D01*
X54786301Y-51089167D01*
X54767734Y-51123903D01*
X54742748Y-51154348D01*
X54712303Y-51179334D01*
X54677567Y-51197901D01*
X54639874Y-51209335D01*
X54594539Y-51213800D01*
X53507861Y-51213800D01*
X53462526Y-51209335D01*
X53424833Y-51197901D01*
X53390097Y-51179334D01*
X53359652Y-51154348D01*
X53334666Y-51123903D01*
X53316099Y-51089167D01*
X53304665Y-51051474D01*
X53300200Y-51006139D01*
X53300200Y-50169461D01*
X53304665Y-50124126D01*
X53316099Y-50086433D01*
X53334666Y-50051697D01*
X53359652Y-50021252D01*
X53390097Y-49996266D01*
X53424833Y-49977699D01*
X53462526Y-49966265D01*
X53507861Y-49961800D01*
X54594539Y-49961800D01*
X54639874Y-49966265D01*
X54639874Y-49966265D01*
G37*
G36*
X50370000Y-49725100D02*
G01*
X44118000Y-49725100D01*
X44118000Y-48023100D01*
X50370000Y-48023100D01*
X50370000Y-49725100D01*
X50370000Y-49725100D01*
G37*
G36*
X39842000Y-49570200D02*
G01*
X38390000Y-49570200D01*
X38390000Y-48118200D01*
X39842000Y-48118200D01*
X39842000Y-49570200D01*
X39842000Y-49570200D01*
G37*
G36*
X53552840Y-49391200D02*
G01*
X51450840Y-49391200D01*
X51450840Y-47789200D01*
X53552840Y-47789200D01*
X53552840Y-49391200D01*
X53552840Y-49391200D01*
G37*
G36*
X43113400Y-49391200D02*
G01*
X41011400Y-49391200D01*
X41011400Y-47789200D01*
X43113400Y-47789200D01*
X43113400Y-49391200D01*
X43113400Y-49391200D01*
G37*
G36*
X45985060Y-46562720D02*
G01*
X44383060Y-46562720D01*
X44383060Y-44460720D01*
X45985060Y-44460720D01*
X45985060Y-46562720D01*
X45985060Y-46562720D01*
G37*
G36*
X48779060Y-46562720D02*
G01*
X47177060Y-46562720D01*
X47177060Y-44460720D01*
X48779060Y-44460720D01*
X48779060Y-46562720D01*
X48779060Y-46562720D01*
G37*
G36*
X51573060Y-46562720D02*
G01*
X49971060Y-46562720D01*
X49971060Y-44460720D01*
X51573060Y-44460720D01*
X51573060Y-46562720D01*
X51573060Y-46562720D01*
G37*
G36*
X43188520Y-46560180D02*
G01*
X41586520Y-46560180D01*
X41586520Y-44458180D01*
X43188520Y-44458180D01*
X43188520Y-46560180D01*
X43188520Y-46560180D01*
G37*
G36*
X54369600Y-46560180D02*
G01*
X52767600Y-46560180D01*
X52767600Y-44458180D01*
X54369600Y-44458180D01*
X54369600Y-46560180D01*
X54369600Y-46560180D01*
G37*
G36*
X40391980Y-46560180D02*
G01*
X38789980Y-46560180D01*
X38789980Y-44458180D01*
X40391980Y-44458180D01*
X40391980Y-46560180D01*
X40391980Y-46560180D01*
G37*
M02*
