G04 #@! TF.GenerationSoftware,KiCad,Pcbnew,(5.1.4-0-10_14)*
G04 #@! TF.CreationDate,2019-10-28T18:43:38+01:00*
G04 #@! TF.ProjectId,328RFStamp,33323852-4653-4746-916d-702e6b696361,rev?*
G04 #@! TF.SameCoordinates,Original*
G04 #@! TF.FileFunction,Legend,Bot*
G04 #@! TF.FilePolarity,Positive*
%FSLAX46Y46*%
G04 Gerber Fmt 4.6, Leading zero omitted, Abs format (unit mm)*
G04 Created by KiCad (PCBNEW (5.1.4-0-10_14)) date 2019-10-28 18:43:38*
%MOMM*%
%LPD*%
G04 APERTURE LIST*
%ADD10C,0.100000*%
%ADD11C,0.200000*%
G04 APERTURE END LIST*
D10*
X54023666Y-59241500D02*
X54057000Y-59274833D01*
X54157000Y-59308166D01*
X54223666Y-59308166D01*
X54323666Y-59274833D01*
X54390333Y-59208166D01*
X54423666Y-59141500D01*
X54457000Y-59008166D01*
X54457000Y-58908166D01*
X54423666Y-58774833D01*
X54390333Y-58708166D01*
X54323666Y-58641500D01*
X54223666Y-58608166D01*
X54157000Y-58608166D01*
X54057000Y-58641500D01*
X54023666Y-58674833D01*
X53323666Y-59241500D02*
X53357000Y-59274833D01*
X53457000Y-59308166D01*
X53523666Y-59308166D01*
X53623666Y-59274833D01*
X53690333Y-59208166D01*
X53723666Y-59141500D01*
X53757000Y-59008166D01*
X53757000Y-58908166D01*
X53723666Y-58774833D01*
X53690333Y-58708166D01*
X53623666Y-58641500D01*
X53523666Y-58608166D01*
X53457000Y-58608166D01*
X53357000Y-58641500D01*
X53323666Y-58674833D01*
X52257000Y-58941500D02*
X52157000Y-58974833D01*
X52123666Y-59008166D01*
X52090333Y-59074833D01*
X52090333Y-59174833D01*
X52123666Y-59241500D01*
X52157000Y-59274833D01*
X52223666Y-59308166D01*
X52490333Y-59308166D01*
X52490333Y-58608166D01*
X52257000Y-58608166D01*
X52190333Y-58641500D01*
X52157000Y-58674833D01*
X52123666Y-58741500D01*
X52123666Y-58808166D01*
X52157000Y-58874833D01*
X52190333Y-58908166D01*
X52257000Y-58941500D01*
X52490333Y-58941500D01*
X51657000Y-58974833D02*
X51657000Y-59308166D01*
X51890333Y-58608166D02*
X51657000Y-58974833D01*
X51423666Y-58608166D01*
X51190333Y-59041500D02*
X50657000Y-59041500D01*
X50323666Y-59308166D02*
X50323666Y-58608166D01*
X49923666Y-59308166D01*
X49923666Y-58608166D01*
X49190333Y-59241500D02*
X49223666Y-59274833D01*
X49323666Y-59308166D01*
X49390333Y-59308166D01*
X49490333Y-59274833D01*
X49557000Y-59208166D01*
X49590333Y-59141500D01*
X49623666Y-59008166D01*
X49623666Y-58908166D01*
X49590333Y-58774833D01*
X49557000Y-58708166D01*
X49490333Y-58641500D01*
X49390333Y-58608166D01*
X49323666Y-58608166D01*
X49223666Y-58641500D01*
X49190333Y-58674833D01*
X48890333Y-59041500D02*
X48357000Y-59041500D01*
X48057000Y-59274833D02*
X47957000Y-59308166D01*
X47790333Y-59308166D01*
X47723666Y-59274833D01*
X47690333Y-59241500D01*
X47657000Y-59174833D01*
X47657000Y-59108166D01*
X47690333Y-59041500D01*
X47723666Y-59008166D01*
X47790333Y-58974833D01*
X47923666Y-58941500D01*
X47990333Y-58908166D01*
X48023666Y-58874833D01*
X48057000Y-58808166D01*
X48057000Y-58741500D01*
X48023666Y-58674833D01*
X47990333Y-58641500D01*
X47923666Y-58608166D01*
X47757000Y-58608166D01*
X47657000Y-58641500D01*
X47390333Y-59108166D02*
X47057000Y-59108166D01*
X47457000Y-59308166D02*
X47223666Y-58608166D01*
X46990333Y-59308166D01*
X45923666Y-58841500D02*
X45923666Y-59308166D01*
X46090333Y-58574833D02*
X46257000Y-59074833D01*
X45823666Y-59074833D01*
X45557000Y-59241500D02*
X45523666Y-59274833D01*
X45557000Y-59308166D01*
X45590333Y-59274833D01*
X45557000Y-59241500D01*
X45557000Y-59308166D01*
X45090333Y-58608166D02*
X45023666Y-58608166D01*
X44957000Y-58641500D01*
X44923666Y-58674833D01*
X44890333Y-58741500D01*
X44857000Y-58874833D01*
X44857000Y-59041500D01*
X44890333Y-59174833D01*
X44923666Y-59241500D01*
X44957000Y-59274833D01*
X45023666Y-59308166D01*
X45090333Y-59308166D01*
X45157000Y-59274833D01*
X45190333Y-59241500D01*
X45223666Y-59174833D01*
X45257000Y-59041500D01*
X45257000Y-58874833D01*
X45223666Y-58741500D01*
X45190333Y-58674833D01*
X45157000Y-58641500D01*
X45090333Y-58608166D01*
D11*
X52172619Y-46290880D02*
X51553571Y-46290880D01*
X51886904Y-46671833D01*
X51744047Y-46671833D01*
X51648809Y-46719452D01*
X51601190Y-46767071D01*
X51553571Y-46862309D01*
X51553571Y-47100404D01*
X51601190Y-47195642D01*
X51648809Y-47243261D01*
X51744047Y-47290880D01*
X52029761Y-47290880D01*
X52125000Y-47243261D01*
X52172619Y-47195642D01*
X51172619Y-46386119D02*
X51125000Y-46338500D01*
X51029761Y-46290880D01*
X50791666Y-46290880D01*
X50696428Y-46338500D01*
X50648809Y-46386119D01*
X50601190Y-46481357D01*
X50601190Y-46576595D01*
X50648809Y-46719452D01*
X51220238Y-47290880D01*
X50601190Y-47290880D01*
X50029761Y-46719452D02*
X50125000Y-46671833D01*
X50172619Y-46624214D01*
X50220238Y-46528976D01*
X50220238Y-46481357D01*
X50172619Y-46386119D01*
X50125000Y-46338500D01*
X50029761Y-46290880D01*
X49839285Y-46290880D01*
X49744047Y-46338500D01*
X49696428Y-46386119D01*
X49648809Y-46481357D01*
X49648809Y-46528976D01*
X49696428Y-46624214D01*
X49744047Y-46671833D01*
X49839285Y-46719452D01*
X50029761Y-46719452D01*
X50125000Y-46767071D01*
X50172619Y-46814690D01*
X50220238Y-46909928D01*
X50220238Y-47100404D01*
X50172619Y-47195642D01*
X50125000Y-47243261D01*
X50029761Y-47290880D01*
X49839285Y-47290880D01*
X49744047Y-47243261D01*
X49696428Y-47195642D01*
X49648809Y-47100404D01*
X49648809Y-46909928D01*
X49696428Y-46814690D01*
X49744047Y-46767071D01*
X49839285Y-46719452D01*
X48648809Y-47290880D02*
X48982142Y-46814690D01*
X49220238Y-47290880D02*
X49220238Y-46290880D01*
X48839285Y-46290880D01*
X48744047Y-46338500D01*
X48696428Y-46386119D01*
X48648809Y-46481357D01*
X48648809Y-46624214D01*
X48696428Y-46719452D01*
X48744047Y-46767071D01*
X48839285Y-46814690D01*
X49220238Y-46814690D01*
X47886904Y-46767071D02*
X48220238Y-46767071D01*
X48220238Y-47290880D02*
X48220238Y-46290880D01*
X47744047Y-46290880D01*
X47410714Y-47243261D02*
X47267857Y-47290880D01*
X47029761Y-47290880D01*
X46934523Y-47243261D01*
X46886904Y-47195642D01*
X46839285Y-47100404D01*
X46839285Y-47005166D01*
X46886904Y-46909928D01*
X46934523Y-46862309D01*
X47029761Y-46814690D01*
X47220238Y-46767071D01*
X47315476Y-46719452D01*
X47363095Y-46671833D01*
X47410714Y-46576595D01*
X47410714Y-46481357D01*
X47363095Y-46386119D01*
X47315476Y-46338500D01*
X47220238Y-46290880D01*
X46982142Y-46290880D01*
X46839285Y-46338500D01*
X46553571Y-46624214D02*
X46172619Y-46624214D01*
X46410714Y-46290880D02*
X46410714Y-47148023D01*
X46363095Y-47243261D01*
X46267857Y-47290880D01*
X46172619Y-47290880D01*
X45410714Y-47290880D02*
X45410714Y-46767071D01*
X45458333Y-46671833D01*
X45553571Y-46624214D01*
X45744047Y-46624214D01*
X45839285Y-46671833D01*
X45410714Y-47243261D02*
X45505952Y-47290880D01*
X45744047Y-47290880D01*
X45839285Y-47243261D01*
X45886904Y-47148023D01*
X45886904Y-47052785D01*
X45839285Y-46957547D01*
X45744047Y-46909928D01*
X45505952Y-46909928D01*
X45410714Y-46862309D01*
X44934523Y-47290880D02*
X44934523Y-46624214D01*
X44934523Y-46719452D02*
X44886904Y-46671833D01*
X44791666Y-46624214D01*
X44648809Y-46624214D01*
X44553571Y-46671833D01*
X44505952Y-46767071D01*
X44505952Y-47290880D01*
X44505952Y-46767071D02*
X44458333Y-46671833D01*
X44363095Y-46624214D01*
X44220238Y-46624214D01*
X44125000Y-46671833D01*
X44077380Y-46767071D01*
X44077380Y-47290880D01*
X43601190Y-46624214D02*
X43601190Y-47624214D01*
X43601190Y-46671833D02*
X43505952Y-46624214D01*
X43315476Y-46624214D01*
X43220238Y-46671833D01*
X43172619Y-46719452D01*
X43125000Y-46814690D01*
X43125000Y-47100404D01*
X43172619Y-47195642D01*
X43220238Y-47243261D01*
X43315476Y-47290880D01*
X43505952Y-47290880D01*
X43601190Y-47243261D01*
X54101190Y-49371833D02*
X54148809Y-49324214D01*
X54244047Y-49181357D01*
X54291666Y-49086119D01*
X54339285Y-48943261D01*
X54386904Y-48705166D01*
X54386904Y-48514690D01*
X54339285Y-48276595D01*
X54291666Y-48133738D01*
X54244047Y-48038500D01*
X54148809Y-47895642D01*
X54101190Y-47848023D01*
X53291666Y-48943261D02*
X53386904Y-48990880D01*
X53577380Y-48990880D01*
X53672619Y-48943261D01*
X53720238Y-48895642D01*
X53767857Y-48800404D01*
X53767857Y-48514690D01*
X53720238Y-48419452D01*
X53672619Y-48371833D01*
X53577380Y-48324214D01*
X53386904Y-48324214D01*
X53291666Y-48371833D01*
X52958333Y-49371833D02*
X52910714Y-49324214D01*
X52815476Y-49181357D01*
X52767857Y-49086119D01*
X52720238Y-48943261D01*
X52672619Y-48705166D01*
X52672619Y-48514690D01*
X52720238Y-48276595D01*
X52767857Y-48133738D01*
X52815476Y-48038500D01*
X52910714Y-47895642D01*
X52958333Y-47848023D01*
X51482142Y-48086119D02*
X51434523Y-48038500D01*
X51339285Y-47990880D01*
X51101190Y-47990880D01*
X51005952Y-48038500D01*
X50958333Y-48086119D01*
X50910714Y-48181357D01*
X50910714Y-48276595D01*
X50958333Y-48419452D01*
X51529761Y-48990880D01*
X50910714Y-48990880D01*
X50291666Y-47990880D02*
X50196428Y-47990880D01*
X50101190Y-48038500D01*
X50053571Y-48086119D01*
X50005952Y-48181357D01*
X49958333Y-48371833D01*
X49958333Y-48609928D01*
X50005952Y-48800404D01*
X50053571Y-48895642D01*
X50101190Y-48943261D01*
X50196428Y-48990880D01*
X50291666Y-48990880D01*
X50386904Y-48943261D01*
X50434523Y-48895642D01*
X50482142Y-48800404D01*
X50529761Y-48609928D01*
X50529761Y-48371833D01*
X50482142Y-48181357D01*
X50434523Y-48086119D01*
X50386904Y-48038500D01*
X50291666Y-47990880D01*
X49005952Y-48990880D02*
X49577380Y-48990880D01*
X49291666Y-48990880D02*
X49291666Y-47990880D01*
X49386904Y-48133738D01*
X49482142Y-48228976D01*
X49577380Y-48276595D01*
X48529761Y-48990880D02*
X48339285Y-48990880D01*
X48244047Y-48943261D01*
X48196428Y-48895642D01*
X48101190Y-48752785D01*
X48053571Y-48562309D01*
X48053571Y-48181357D01*
X48101190Y-48086119D01*
X48148809Y-48038500D01*
X48244047Y-47990880D01*
X48434523Y-47990880D01*
X48529761Y-48038500D01*
X48577380Y-48086119D01*
X48625000Y-48181357D01*
X48625000Y-48419452D01*
X48577380Y-48514690D01*
X48529761Y-48562309D01*
X48434523Y-48609928D01*
X48244047Y-48609928D01*
X48148809Y-48562309D01*
X48101190Y-48514690D01*
X48053571Y-48419452D01*
X46863095Y-48324214D02*
X46863095Y-49181357D01*
X46910714Y-49276595D01*
X47005952Y-49324214D01*
X47053571Y-49324214D01*
X46863095Y-47990880D02*
X46910714Y-48038500D01*
X46863095Y-48086119D01*
X46815476Y-48038500D01*
X46863095Y-47990880D01*
X46863095Y-48086119D01*
X46386904Y-48324214D02*
X46386904Y-49324214D01*
X46386904Y-48371833D02*
X46291666Y-48324214D01*
X46101190Y-48324214D01*
X46005952Y-48371833D01*
X45958333Y-48419452D01*
X45910714Y-48514690D01*
X45910714Y-48800404D01*
X45958333Y-48895642D01*
X46005952Y-48943261D01*
X46101190Y-48990880D01*
X46291666Y-48990880D01*
X46386904Y-48943261D01*
X44958333Y-48990880D02*
X45529761Y-48990880D01*
X45244047Y-48990880D02*
X45244047Y-47990880D01*
X45339285Y-48133738D01*
X45434523Y-48228976D01*
X45529761Y-48276595D01*
X44005952Y-48990880D02*
X44577380Y-48990880D01*
X44291666Y-48990880D02*
X44291666Y-47990880D01*
X44386904Y-48133738D01*
X44482142Y-48228976D01*
X44577380Y-48276595D01*
X43625000Y-48086119D02*
X43577380Y-48038500D01*
X43482142Y-47990880D01*
X43244047Y-47990880D01*
X43148809Y-48038500D01*
X43101190Y-48086119D01*
X43053571Y-48181357D01*
X43053571Y-48276595D01*
X43101190Y-48419452D01*
X43672619Y-48990880D01*
X43053571Y-48990880D01*
X42672619Y-48943261D02*
X42577380Y-48990880D01*
X42386904Y-48990880D01*
X42291666Y-48943261D01*
X42244047Y-48848023D01*
X42244047Y-48800404D01*
X42291666Y-48705166D01*
X42386904Y-48657547D01*
X42529761Y-48657547D01*
X42625000Y-48609928D01*
X42672619Y-48514690D01*
X42672619Y-48467071D01*
X42625000Y-48371833D01*
X42529761Y-48324214D01*
X42386904Y-48324214D01*
X42291666Y-48371833D01*
X41386904Y-48990880D02*
X41386904Y-47990880D01*
X41386904Y-48943261D02*
X41482142Y-48990880D01*
X41672619Y-48990880D01*
X41767857Y-48943261D01*
X41815476Y-48895642D01*
X41863095Y-48800404D01*
X41863095Y-48514690D01*
X41815476Y-48419452D01*
X41767857Y-48371833D01*
X41672619Y-48324214D01*
X41482142Y-48324214D01*
X41386904Y-48371833D01*
X40767857Y-48990880D02*
X40863095Y-48943261D01*
X40910714Y-48848023D01*
X40910714Y-47990880D01*
M02*
