G04 #@! TF.GenerationSoftware,KiCad,Pcbnew,(5.1.4-0-10_14)*
G04 #@! TF.CreationDate,2019-10-28T18:43:38+01:00*
G04 #@! TF.ProjectId,328RFStamp,33323852-4653-4746-916d-702e6b696361,rev?*
G04 #@! TF.SameCoordinates,Original*
G04 #@! TF.FileFunction,Legend,Top*
G04 #@! TF.FilePolarity,Positive*
%FSLAX46Y46*%
G04 Gerber Fmt 4.6, Leading zero omitted, Abs format (unit mm)*
G04 Created by KiCad (PCBNEW (5.1.4-0-10_14)) date 2019-10-28 18:43:38*
%MOMM*%
%LPD*%
G04 APERTURE LIST*
%ADD10C,0.075000*%
%ADD11C,0.120000*%
%ADD12C,0.150000*%
%ADD13C,0.100000*%
G04 APERTURE END LIST*
D10*
X40657428Y-56717135D02*
X40371714Y-56917135D01*
X40657428Y-57059992D02*
X40057428Y-57059992D01*
X40057428Y-56831421D01*
X40086000Y-56774278D01*
X40114571Y-56745707D01*
X40171714Y-56717135D01*
X40257428Y-56717135D01*
X40314571Y-56745707D01*
X40343142Y-56774278D01*
X40371714Y-56831421D01*
X40371714Y-57059992D01*
X40628857Y-56488564D02*
X40657428Y-56402850D01*
X40657428Y-56259992D01*
X40628857Y-56202850D01*
X40600285Y-56174278D01*
X40543142Y-56145707D01*
X40486000Y-56145707D01*
X40428857Y-56174278D01*
X40400285Y-56202850D01*
X40371714Y-56259992D01*
X40343142Y-56374278D01*
X40314571Y-56431421D01*
X40286000Y-56459992D01*
X40228857Y-56488564D01*
X40171714Y-56488564D01*
X40114571Y-56459992D01*
X40086000Y-56431421D01*
X40057428Y-56374278D01*
X40057428Y-56231421D01*
X40086000Y-56145707D01*
X40057428Y-55974278D02*
X40057428Y-55631421D01*
X40657428Y-55802850D02*
X40057428Y-55802850D01*
X40657428Y-54631421D02*
X40371714Y-54831421D01*
X40657428Y-54974278D02*
X40057428Y-54974278D01*
X40057428Y-54745707D01*
X40086000Y-54688564D01*
X40114571Y-54659992D01*
X40171714Y-54631421D01*
X40257428Y-54631421D01*
X40314571Y-54659992D01*
X40343142Y-54688564D01*
X40371714Y-54745707D01*
X40371714Y-54974278D01*
X40057428Y-54431421D02*
X40657428Y-54031421D01*
X40057428Y-54031421D02*
X40657428Y-54431421D01*
X40057428Y-52974278D02*
X40057428Y-52631421D01*
X40657428Y-52802850D02*
X40057428Y-52802850D01*
X40057428Y-52488564D02*
X40657428Y-52088564D01*
X40057428Y-52088564D02*
X40657428Y-52488564D01*
X40428857Y-50945707D02*
X40428857Y-50488564D01*
X40657428Y-50717135D02*
X40200285Y-50717135D01*
X40428857Y-48831421D02*
X40428857Y-48374278D01*
D11*
X41282252Y-59107000D02*
X40759748Y-59107000D01*
X41282252Y-60527000D02*
X40759748Y-60527000D01*
X46806752Y-61469200D02*
X46284248Y-61469200D01*
X46806752Y-62889200D02*
X46284248Y-62889200D01*
X43499000Y-57505600D02*
G75*
G03X43499000Y-57505600I-700000J0D01*
G01*
X52389000Y-57556400D02*
G75*
G03X52389000Y-57556400I-700000J0D01*
G01*
X48100348Y-60374600D02*
X48622852Y-60374600D01*
X48100348Y-58954600D02*
X48622852Y-58954600D01*
X44164000Y-61218800D02*
X40079000Y-61218800D01*
X44164000Y-63088800D02*
X44164000Y-61218800D01*
X40079000Y-63088800D02*
X44164000Y-63088800D01*
D12*
X50869000Y-56524100D02*
X52294000Y-56524100D01*
X43619000Y-56749100D02*
X43944000Y-56749100D01*
X43619000Y-49499100D02*
X43944000Y-49499100D01*
X50869000Y-49499100D02*
X50544000Y-49499100D01*
X50869000Y-56749100D02*
X50544000Y-56749100D01*
X50869000Y-49499100D02*
X50869000Y-49824100D01*
X43619000Y-49499100D02*
X43619000Y-49824100D01*
X43619000Y-56749100D02*
X43619000Y-56424100D01*
X50869000Y-56749100D02*
X50869000Y-56524100D01*
D11*
X53341200Y-51351548D02*
X53341200Y-51874052D01*
X54761200Y-51351548D02*
X54761200Y-51874052D01*
X51289852Y-61494600D02*
X50767348Y-61494600D01*
X51289852Y-62914600D02*
X50767348Y-62914600D01*
D13*
X38957214Y-59950333D02*
X38995309Y-59988428D01*
X39033404Y-60102714D01*
X39033404Y-60178904D01*
X38995309Y-60293190D01*
X38919119Y-60369380D01*
X38842928Y-60407476D01*
X38690547Y-60445571D01*
X38576261Y-60445571D01*
X38423880Y-60407476D01*
X38347690Y-60369380D01*
X38271500Y-60293190D01*
X38233404Y-60178904D01*
X38233404Y-60102714D01*
X38271500Y-59988428D01*
X38309595Y-59950333D01*
X38309595Y-59645571D02*
X38271500Y-59607476D01*
X38233404Y-59531285D01*
X38233404Y-59340809D01*
X38271500Y-59264619D01*
X38309595Y-59226523D01*
X38385785Y-59188428D01*
X38461976Y-59188428D01*
X38576261Y-59226523D01*
X39033404Y-59683666D01*
X39033404Y-59188428D01*
X45840666Y-60991714D02*
X45802571Y-61029809D01*
X45688285Y-61067904D01*
X45612095Y-61067904D01*
X45497809Y-61029809D01*
X45421619Y-60953619D01*
X45383523Y-60877428D01*
X45345428Y-60725047D01*
X45345428Y-60610761D01*
X45383523Y-60458380D01*
X45421619Y-60382190D01*
X45497809Y-60306000D01*
X45612095Y-60267904D01*
X45688285Y-60267904D01*
X45802571Y-60306000D01*
X45840666Y-60344095D01*
X46602571Y-61067904D02*
X46145428Y-61067904D01*
X46374000Y-61067904D02*
X46374000Y-60267904D01*
X46297809Y-60382190D01*
X46221619Y-60458380D01*
X46145428Y-60496476D01*
X41325819Y-58731104D02*
X40868676Y-58731104D01*
X41097247Y-58731104D02*
X41097247Y-57931104D01*
X41021057Y-58045390D01*
X40944866Y-58121580D01*
X40868676Y-58159676D01*
X42049628Y-57931104D02*
X41668676Y-57931104D01*
X41630580Y-58312057D01*
X41668676Y-58273961D01*
X41744866Y-58235866D01*
X41935342Y-58235866D01*
X42011533Y-58273961D01*
X42049628Y-58312057D01*
X42087723Y-58388247D01*
X42087723Y-58578723D01*
X42049628Y-58654914D01*
X42011533Y-58693009D01*
X41935342Y-58731104D01*
X41744866Y-58731104D01*
X41668676Y-58693009D01*
X41630580Y-58654914D01*
X52882819Y-58502504D02*
X52425676Y-58502504D01*
X52654247Y-58502504D02*
X52654247Y-57702504D01*
X52578057Y-57816790D01*
X52501866Y-57892980D01*
X52425676Y-57931076D01*
X53568533Y-57969171D02*
X53568533Y-58502504D01*
X53378057Y-57664409D02*
X53187580Y-58235838D01*
X53682819Y-58235838D01*
X50793666Y-59467714D02*
X50755571Y-59505809D01*
X50641285Y-59543904D01*
X50565095Y-59543904D01*
X50450809Y-59505809D01*
X50374619Y-59429619D01*
X50336523Y-59353428D01*
X50298428Y-59201047D01*
X50298428Y-59086761D01*
X50336523Y-58934380D01*
X50374619Y-58858190D01*
X50450809Y-58782000D01*
X50565095Y-58743904D01*
X50641285Y-58743904D01*
X50755571Y-58782000D01*
X50793666Y-58820095D01*
X51479380Y-59010571D02*
X51479380Y-59543904D01*
X51288904Y-58705809D02*
X51098428Y-59277238D01*
X51593666Y-59277238D01*
X53695678Y-48088542D02*
X54305201Y-48088542D01*
X54000440Y-48393304D02*
X54000440Y-47783780D01*
X54895704Y-62007695D02*
X54514752Y-62274361D01*
X54895704Y-62464838D02*
X54095704Y-62464838D01*
X54095704Y-62160076D01*
X54133800Y-62083885D01*
X54171895Y-62045790D01*
X54248085Y-62007695D01*
X54362371Y-62007695D01*
X54438561Y-62045790D01*
X54476657Y-62083885D01*
X54514752Y-62160076D01*
X54514752Y-62464838D01*
X54857609Y-61702933D02*
X54895704Y-61588647D01*
X54895704Y-61398171D01*
X54857609Y-61321980D01*
X54819514Y-61283885D01*
X54743323Y-61245790D01*
X54667133Y-61245790D01*
X54590942Y-61283885D01*
X54552847Y-61321980D01*
X54514752Y-61398171D01*
X54476657Y-61550552D01*
X54438561Y-61626742D01*
X54400466Y-61664838D01*
X54324276Y-61702933D01*
X54248085Y-61702933D01*
X54171895Y-61664838D01*
X54133800Y-61626742D01*
X54095704Y-61550552D01*
X54095704Y-61360076D01*
X54133800Y-61245790D01*
X54095704Y-61017219D02*
X54095704Y-60560076D01*
X54895704Y-60788647D02*
X54095704Y-60788647D01*
X54635380Y-46818571D02*
X54635380Y-47351904D01*
X54444904Y-46513809D02*
X54254428Y-47085238D01*
X54749666Y-47085238D01*
X52006476Y-46551904D02*
X51625523Y-46551904D01*
X51587428Y-46932857D01*
X51625523Y-46894761D01*
X51701714Y-46856666D01*
X51892190Y-46856666D01*
X51968380Y-46894761D01*
X52006476Y-46932857D01*
X52044571Y-47009047D01*
X52044571Y-47199523D01*
X52006476Y-47275714D01*
X51968380Y-47313809D01*
X51892190Y-47351904D01*
X51701714Y-47351904D01*
X51625523Y-47313809D01*
X51587428Y-47275714D01*
X49047380Y-46551904D02*
X48895000Y-46551904D01*
X48818809Y-46590000D01*
X48780714Y-46628095D01*
X48704523Y-46742380D01*
X48666428Y-46894761D01*
X48666428Y-47199523D01*
X48704523Y-47275714D01*
X48742619Y-47313809D01*
X48818809Y-47351904D01*
X48971190Y-47351904D01*
X49047380Y-47313809D01*
X49085476Y-47275714D01*
X49123571Y-47199523D01*
X49123571Y-47009047D01*
X49085476Y-46932857D01*
X49047380Y-46894761D01*
X48971190Y-46856666D01*
X48818809Y-46856666D01*
X48742619Y-46894761D01*
X48704523Y-46932857D01*
X48666428Y-47009047D01*
X46088333Y-46551904D02*
X46621666Y-46551904D01*
X46278809Y-47351904D01*
X43357809Y-46894761D02*
X43281619Y-46856666D01*
X43243523Y-46818571D01*
X43205428Y-46742380D01*
X43205428Y-46704285D01*
X43243523Y-46628095D01*
X43281619Y-46590000D01*
X43357809Y-46551904D01*
X43510190Y-46551904D01*
X43586380Y-46590000D01*
X43624476Y-46628095D01*
X43662571Y-46704285D01*
X43662571Y-46742380D01*
X43624476Y-46818571D01*
X43586380Y-46856666D01*
X43510190Y-46894761D01*
X43357809Y-46894761D01*
X43281619Y-46932857D01*
X43243523Y-46970952D01*
X43205428Y-47047142D01*
X43205428Y-47199523D01*
X43243523Y-47275714D01*
X43281619Y-47313809D01*
X43357809Y-47351904D01*
X43510190Y-47351904D01*
X43586380Y-47313809D01*
X43624476Y-47275714D01*
X43662571Y-47199523D01*
X43662571Y-47047142D01*
X43624476Y-46970952D01*
X43586380Y-46932857D01*
X43510190Y-46894761D01*
X40487619Y-47351904D02*
X40640000Y-47351904D01*
X40716190Y-47313809D01*
X40754285Y-47275714D01*
X40830476Y-47161428D01*
X40868571Y-47009047D01*
X40868571Y-46704285D01*
X40830476Y-46628095D01*
X40792380Y-46590000D01*
X40716190Y-46551904D01*
X40563809Y-46551904D01*
X40487619Y-46590000D01*
X40449523Y-46628095D01*
X40411428Y-46704285D01*
X40411428Y-46894761D01*
X40449523Y-46970952D01*
X40487619Y-47009047D01*
X40563809Y-47047142D01*
X40716190Y-47047142D01*
X40792380Y-47009047D01*
X40830476Y-46970952D01*
X40868571Y-46894761D01*
X38992914Y-62299833D02*
X39031009Y-62337928D01*
X39069104Y-62452214D01*
X39069104Y-62528404D01*
X39031009Y-62642690D01*
X38954819Y-62718880D01*
X38878628Y-62756976D01*
X38726247Y-62795071D01*
X38611961Y-62795071D01*
X38459580Y-62756976D01*
X38383390Y-62718880D01*
X38307200Y-62642690D01*
X38269104Y-62528404D01*
X38269104Y-62452214D01*
X38307200Y-62337928D01*
X38345295Y-62299833D01*
X38269104Y-62033166D02*
X38269104Y-61537928D01*
X38573866Y-61804595D01*
X38573866Y-61690309D01*
X38611961Y-61614119D01*
X38650057Y-61576023D01*
X38726247Y-61537928D01*
X38916723Y-61537928D01*
X38992914Y-61576023D01*
X39031009Y-61614119D01*
X39069104Y-61690309D01*
X39069104Y-61918880D01*
X39031009Y-61995071D01*
X38992914Y-62033166D01*
X54565504Y-54387733D02*
X54184552Y-54654400D01*
X54565504Y-54844876D02*
X53765504Y-54844876D01*
X53765504Y-54540114D01*
X53803600Y-54463923D01*
X53841695Y-54425828D01*
X53917885Y-54387733D01*
X54032171Y-54387733D01*
X54108361Y-54425828D01*
X54146457Y-54463923D01*
X54184552Y-54540114D01*
X54184552Y-54844876D01*
X53841695Y-54082971D02*
X53803600Y-54044876D01*
X53765504Y-53968685D01*
X53765504Y-53778209D01*
X53803600Y-53702019D01*
X53841695Y-53663923D01*
X53917885Y-53625828D01*
X53994076Y-53625828D01*
X54108361Y-53663923D01*
X54565504Y-54121066D01*
X54565504Y-53625828D01*
X51428666Y-61144104D02*
X51162000Y-60763152D01*
X50971523Y-61144104D02*
X50971523Y-60344104D01*
X51276285Y-60344104D01*
X51352476Y-60382200D01*
X51390571Y-60420295D01*
X51428666Y-60496485D01*
X51428666Y-60610771D01*
X51390571Y-60686961D01*
X51352476Y-60725057D01*
X51276285Y-60763152D01*
X50971523Y-60763152D01*
X52190571Y-61144104D02*
X51733428Y-61144104D01*
X51962000Y-61144104D02*
X51962000Y-60344104D01*
X51885809Y-60458390D01*
X51809619Y-60534580D01*
X51733428Y-60572676D01*
M02*
