G04 #@! TF.GenerationSoftware,KiCad,Pcbnew,(5.1.4-0-10_14)*
G04 #@! TF.CreationDate,2019-10-28T18:43:38+01:00*
G04 #@! TF.ProjectId,328RFStamp,33323852-4653-4746-916d-702e6b696361,rev?*
G04 #@! TF.SameCoordinates,Original*
G04 #@! TF.FileFunction,Copper,L2,Bot*
G04 #@! TF.FilePolarity,Positive*
%FSLAX46Y46*%
G04 Gerber Fmt 4.6, Leading zero omitted, Abs format (unit mm)*
G04 Created by KiCad (PCBNEW (5.1.4-0-10_14)) date 2019-10-28 18:43:38*
%MOMM*%
%LPD*%
G04 APERTURE LIST*
%ADD10O,1.350000X1.350000*%
%ADD11R,1.350000X1.350000*%
%ADD12C,1.350000*%
%ADD13C,0.800000*%
%ADD14C,0.250000*%
G04 APERTURE END LIST*
D10*
X39116000Y-56844200D03*
X39116000Y-54844200D03*
X39116000Y-52844200D03*
X39116000Y-50844200D03*
D11*
X39116000Y-48844200D03*
D12*
X53568600Y-62738000D03*
D10*
X51568600Y-62738000D03*
X49568600Y-62738000D03*
X47568600Y-62738000D03*
X45568600Y-62738000D03*
X43568600Y-62738000D03*
X41568600Y-62738000D03*
X39568600Y-62738000D03*
D13*
X44571100Y-55970600D03*
X45743600Y-60681500D03*
X49326400Y-50477300D03*
X44532900Y-61131600D03*
X50084500Y-53774500D03*
X50588600Y-59990200D03*
X46661900Y-53321200D03*
X50044000Y-55254500D03*
X45661200Y-55009100D03*
X46150300Y-55969800D03*
X47400900Y-55939600D03*
X53055500Y-61202700D03*
X50074700Y-51995800D03*
X44402700Y-51465600D03*
X43767800Y-45814200D03*
X48249900Y-50278300D03*
X48444000Y-53864000D03*
X48499500Y-52858700D03*
X52952100Y-55865300D03*
X41133800Y-50621200D03*
D14*
X45743600Y-60681500D02*
X44571100Y-59509000D01*
X44571100Y-59509000D02*
X44571100Y-55970600D01*
X50588600Y-56012800D02*
X48541100Y-56012800D01*
X48541100Y-56012800D02*
X47025100Y-54496800D01*
X47025100Y-54496800D02*
X46174900Y-54496800D01*
X46174900Y-54496800D02*
X45916400Y-54238300D01*
X45916400Y-54238300D02*
X45277700Y-54238300D01*
X45277700Y-54238300D02*
X43845800Y-55670200D01*
X43845800Y-55670200D02*
X43845800Y-60444500D01*
X43845800Y-60444500D02*
X44532900Y-61131600D01*
X39116000Y-48844200D02*
X45758400Y-48844200D01*
X45758400Y-48844200D02*
X47921800Y-51007600D01*
X47921800Y-51007600D02*
X48796100Y-51007600D01*
X48796100Y-51007600D02*
X49326400Y-50477300D01*
X50084500Y-53774500D02*
X50774800Y-54464800D01*
X50774800Y-54464800D02*
X50774800Y-55826600D01*
X50774800Y-55826600D02*
X50588600Y-56012800D01*
X50588600Y-59990200D02*
X50588600Y-56012800D01*
X51568600Y-61610700D02*
X50588600Y-60630700D01*
X50588600Y-60630700D02*
X50588600Y-59990200D01*
X51568600Y-62611000D02*
X51568600Y-61610700D01*
X39568600Y-62611000D02*
X39568600Y-58673600D01*
X39568600Y-58673600D02*
X44921000Y-53321200D01*
X44921000Y-53321200D02*
X46661900Y-53321200D01*
X41568600Y-61610700D02*
X41568600Y-57310500D01*
X41568600Y-57310500D02*
X45091100Y-53788000D01*
X45091100Y-53788000D02*
X46103000Y-53788000D01*
X46103000Y-53788000D02*
X46361500Y-54046500D01*
X46361500Y-54046500D02*
X47211700Y-54046500D01*
X47211700Y-54046500D02*
X48419700Y-55254500D01*
X48419700Y-55254500D02*
X50044000Y-55254500D01*
X41568600Y-62611000D02*
X41568600Y-61610700D01*
X45568600Y-61610700D02*
X45840200Y-61610700D01*
X45840200Y-61610700D02*
X46522400Y-60928500D01*
X46522400Y-60928500D02*
X46522400Y-57377200D01*
X46522400Y-57377200D02*
X45424900Y-56279700D01*
X45424900Y-56279700D02*
X45424900Y-55245400D01*
X45424900Y-55245400D02*
X45661200Y-55009100D01*
X45568600Y-62611000D02*
X45568600Y-61610700D01*
X46150300Y-55969800D02*
X47568500Y-57388000D01*
X47568500Y-57388000D02*
X47568500Y-61610700D01*
X47568500Y-61610700D02*
X47568600Y-61610700D01*
X47568600Y-62611000D02*
X47568600Y-61610700D01*
X49568600Y-62611000D02*
X49568600Y-61610700D01*
X47400900Y-55939600D02*
X49568600Y-58107300D01*
X49568600Y-58107300D02*
X49568600Y-61610700D01*
X53055500Y-61202700D02*
X53055500Y-62097900D01*
X53055500Y-62097900D02*
X53568600Y-62611000D01*
X50074700Y-51995800D02*
X52193500Y-54114600D01*
X52193500Y-54114600D02*
X52193500Y-60340700D01*
X52193500Y-60340700D02*
X53055500Y-61202700D01*
X44402700Y-51465600D02*
X47106000Y-51465600D01*
X47106000Y-51465600D02*
X47636200Y-51995800D01*
X47636200Y-51995800D02*
X50074700Y-51995800D01*
X44402700Y-51465600D02*
X40737700Y-51465600D01*
X40737700Y-51465600D02*
X40116300Y-50844200D01*
X39116000Y-50844200D02*
X40116300Y-50844200D01*
X48249900Y-50278300D02*
X43785800Y-45814200D01*
X43785800Y-45814200D02*
X43767800Y-45814200D01*
X40116300Y-54844200D02*
X42319200Y-52641300D01*
X42319200Y-52641300D02*
X45976600Y-52641300D01*
X45976600Y-52641300D02*
X46031300Y-52586600D01*
X46031300Y-52586600D02*
X46953200Y-52586600D01*
X46953200Y-52586600D02*
X48230600Y-53864000D01*
X48230600Y-53864000D02*
X48444000Y-53864000D01*
X39116000Y-54844200D02*
X40116300Y-54844200D01*
X40116300Y-52844200D02*
X40769500Y-52191000D01*
X40769500Y-52191000D02*
X45790000Y-52191000D01*
X45790000Y-52191000D02*
X45844700Y-52136300D01*
X45844700Y-52136300D02*
X47139800Y-52136300D01*
X47139800Y-52136300D02*
X47862200Y-52858700D01*
X47862200Y-52858700D02*
X48499500Y-52858700D01*
X39116000Y-52844200D02*
X40116300Y-52844200D01*
X41133800Y-50621200D02*
X46898500Y-50621200D01*
X46898500Y-50621200D02*
X47791400Y-51514100D01*
X47791400Y-51514100D02*
X49151700Y-51514100D01*
X49151700Y-51514100D02*
X49433100Y-51232700D01*
X49433100Y-51232700D02*
X50408200Y-51232700D01*
X50408200Y-51232700D02*
X52952100Y-53776600D01*
X52952100Y-53776600D02*
X52952100Y-55865300D01*
M02*
