M48
; DRILL file {KiCad (5.1.4-0-10_14)} date Montag, 28. Oktober 2019 um 18:43:40
; FORMAT={-:-/ absolute / inch / decimal}
; #@! TF.CreationDate,2019-10-28T18:43:40+01:00
; #@! TF.GenerationSoftware,Kicad,Pcbnew,(5.1.4-0-10_14)
; #@! TF.FileFunction,Plated,1,2,PTH
FMAT,2
INCH
T1C0.0157
T2C0.0315
%
G90
G05
T1
X1.6194Y-1.993
X1.7231Y-1.8037
X1.7481Y-2.0262
X1.7533Y-2.4068
X1.7548Y-2.2036
X1.7977Y-2.1657
X1.8009Y-2.389
X1.8169Y-2.2035
X1.8371Y-2.0993
X1.8662Y-2.2023
X1.8996Y-1.9795
X1.9072Y-2.1206
X1.9094Y-2.0811
X1.942Y-1.9873
X1.9702Y-2.1754
X1.9714Y-2.0471
X1.9718Y-2.1171
X1.9917Y-2.3618
X2.0847Y-2.1994
X2.0888Y-2.4096
T2
X1.54Y-1.923
X1.54Y-2.0017
X1.54Y-2.0805
X1.54Y-2.1592
X1.54Y-2.238
T0
M30
