G04 #@! TF.GenerationSoftware,KiCad,Pcbnew,(5.1.4-0-10_14)*
G04 #@! TF.CreationDate,2019-10-28T18:43:38+01:00*
G04 #@! TF.ProjectId,328RFStamp,33323852-4653-4746-916d-702e6b696361,rev?*
G04 #@! TF.SameCoordinates,Original*
G04 #@! TF.FileFunction,Soldermask,Bot*
G04 #@! TF.FilePolarity,Negative*
%FSLAX46Y46*%
G04 Gerber Fmt 4.6, Leading zero omitted, Abs format (unit mm)*
G04 Created by KiCad (PCBNEW (5.1.4-0-10_14)) date 2019-10-28 18:43:38*
%MOMM*%
%LPD*%
G04 APERTURE LIST*
%ADD10C,0.100000*%
G04 APERTURE END LIST*
D10*
G36*
X53780366Y-62039899D02*
G01*
X53912488Y-62094626D01*
X53912490Y-62094627D01*
X54031398Y-62174079D01*
X54132521Y-62275202D01*
X54132522Y-62275204D01*
X54211974Y-62394112D01*
X54266701Y-62526234D01*
X54294600Y-62666494D01*
X54294600Y-62809506D01*
X54266701Y-62949766D01*
X54238780Y-63017172D01*
X54211973Y-63081890D01*
X54132521Y-63200798D01*
X54031398Y-63301921D01*
X53912490Y-63381373D01*
X53912489Y-63381374D01*
X53912488Y-63381374D01*
X53780366Y-63436101D01*
X53640106Y-63464000D01*
X53497094Y-63464000D01*
X53356834Y-63436101D01*
X53224712Y-63381374D01*
X53224711Y-63381374D01*
X53224710Y-63381373D01*
X53105802Y-63301921D01*
X53004679Y-63200798D01*
X52925227Y-63081890D01*
X52898420Y-63017172D01*
X52870499Y-62949766D01*
X52842600Y-62809506D01*
X52842600Y-62666494D01*
X52870499Y-62526234D01*
X52925226Y-62394112D01*
X53004678Y-62275204D01*
X53004679Y-62275202D01*
X53105802Y-62174079D01*
X53224710Y-62094627D01*
X53224712Y-62094626D01*
X53356834Y-62039899D01*
X53497094Y-62012000D01*
X53640106Y-62012000D01*
X53780366Y-62039899D01*
X53780366Y-62039899D01*
G37*
G36*
X51639813Y-62015502D02*
G01*
X51710921Y-62022505D01*
X51847772Y-62064019D01*
X51847775Y-62064020D01*
X51973894Y-62131432D01*
X52084443Y-62222157D01*
X52175168Y-62332706D01*
X52242580Y-62458825D01*
X52242581Y-62458828D01*
X52284095Y-62595679D01*
X52298112Y-62738000D01*
X52284095Y-62880321D01*
X52242581Y-63017172D01*
X52242580Y-63017175D01*
X52175168Y-63143294D01*
X52084443Y-63253843D01*
X51973894Y-63344568D01*
X51847775Y-63411980D01*
X51847772Y-63411981D01*
X51710921Y-63453495D01*
X51639813Y-63460498D01*
X51604260Y-63464000D01*
X51532940Y-63464000D01*
X51497387Y-63460498D01*
X51426279Y-63453495D01*
X51289428Y-63411981D01*
X51289425Y-63411980D01*
X51163306Y-63344568D01*
X51052757Y-63253843D01*
X50962032Y-63143294D01*
X50894620Y-63017175D01*
X50894619Y-63017172D01*
X50853105Y-62880321D01*
X50839088Y-62738000D01*
X50853105Y-62595679D01*
X50894619Y-62458828D01*
X50894620Y-62458825D01*
X50962032Y-62332706D01*
X51052757Y-62222157D01*
X51163306Y-62131432D01*
X51289425Y-62064020D01*
X51289428Y-62064019D01*
X51426279Y-62022505D01*
X51497387Y-62015502D01*
X51532940Y-62012000D01*
X51604260Y-62012000D01*
X51639813Y-62015502D01*
X51639813Y-62015502D01*
G37*
G36*
X49639813Y-62015502D02*
G01*
X49710921Y-62022505D01*
X49847772Y-62064019D01*
X49847775Y-62064020D01*
X49973894Y-62131432D01*
X50084443Y-62222157D01*
X50175168Y-62332706D01*
X50242580Y-62458825D01*
X50242581Y-62458828D01*
X50284095Y-62595679D01*
X50298112Y-62738000D01*
X50284095Y-62880321D01*
X50242581Y-63017172D01*
X50242580Y-63017175D01*
X50175168Y-63143294D01*
X50084443Y-63253843D01*
X49973894Y-63344568D01*
X49847775Y-63411980D01*
X49847772Y-63411981D01*
X49710921Y-63453495D01*
X49639813Y-63460498D01*
X49604260Y-63464000D01*
X49532940Y-63464000D01*
X49497387Y-63460498D01*
X49426279Y-63453495D01*
X49289428Y-63411981D01*
X49289425Y-63411980D01*
X49163306Y-63344568D01*
X49052757Y-63253843D01*
X48962032Y-63143294D01*
X48894620Y-63017175D01*
X48894619Y-63017172D01*
X48853105Y-62880321D01*
X48839088Y-62738000D01*
X48853105Y-62595679D01*
X48894619Y-62458828D01*
X48894620Y-62458825D01*
X48962032Y-62332706D01*
X49052757Y-62222157D01*
X49163306Y-62131432D01*
X49289425Y-62064020D01*
X49289428Y-62064019D01*
X49426279Y-62022505D01*
X49497387Y-62015502D01*
X49532940Y-62012000D01*
X49604260Y-62012000D01*
X49639813Y-62015502D01*
X49639813Y-62015502D01*
G37*
G36*
X47639813Y-62015502D02*
G01*
X47710921Y-62022505D01*
X47847772Y-62064019D01*
X47847775Y-62064020D01*
X47973894Y-62131432D01*
X48084443Y-62222157D01*
X48175168Y-62332706D01*
X48242580Y-62458825D01*
X48242581Y-62458828D01*
X48284095Y-62595679D01*
X48298112Y-62738000D01*
X48284095Y-62880321D01*
X48242581Y-63017172D01*
X48242580Y-63017175D01*
X48175168Y-63143294D01*
X48084443Y-63253843D01*
X47973894Y-63344568D01*
X47847775Y-63411980D01*
X47847772Y-63411981D01*
X47710921Y-63453495D01*
X47639813Y-63460498D01*
X47604260Y-63464000D01*
X47532940Y-63464000D01*
X47497387Y-63460498D01*
X47426279Y-63453495D01*
X47289428Y-63411981D01*
X47289425Y-63411980D01*
X47163306Y-63344568D01*
X47052757Y-63253843D01*
X46962032Y-63143294D01*
X46894620Y-63017175D01*
X46894619Y-63017172D01*
X46853105Y-62880321D01*
X46839088Y-62738000D01*
X46853105Y-62595679D01*
X46894619Y-62458828D01*
X46894620Y-62458825D01*
X46962032Y-62332706D01*
X47052757Y-62222157D01*
X47163306Y-62131432D01*
X47289425Y-62064020D01*
X47289428Y-62064019D01*
X47426279Y-62022505D01*
X47497387Y-62015502D01*
X47532940Y-62012000D01*
X47604260Y-62012000D01*
X47639813Y-62015502D01*
X47639813Y-62015502D01*
G37*
G36*
X45639813Y-62015502D02*
G01*
X45710921Y-62022505D01*
X45847772Y-62064019D01*
X45847775Y-62064020D01*
X45973894Y-62131432D01*
X46084443Y-62222157D01*
X46175168Y-62332706D01*
X46242580Y-62458825D01*
X46242581Y-62458828D01*
X46284095Y-62595679D01*
X46298112Y-62738000D01*
X46284095Y-62880321D01*
X46242581Y-63017172D01*
X46242580Y-63017175D01*
X46175168Y-63143294D01*
X46084443Y-63253843D01*
X45973894Y-63344568D01*
X45847775Y-63411980D01*
X45847772Y-63411981D01*
X45710921Y-63453495D01*
X45639813Y-63460498D01*
X45604260Y-63464000D01*
X45532940Y-63464000D01*
X45497387Y-63460498D01*
X45426279Y-63453495D01*
X45289428Y-63411981D01*
X45289425Y-63411980D01*
X45163306Y-63344568D01*
X45052757Y-63253843D01*
X44962032Y-63143294D01*
X44894620Y-63017175D01*
X44894619Y-63017172D01*
X44853105Y-62880321D01*
X44839088Y-62738000D01*
X44853105Y-62595679D01*
X44894619Y-62458828D01*
X44894620Y-62458825D01*
X44962032Y-62332706D01*
X45052757Y-62222157D01*
X45163306Y-62131432D01*
X45289425Y-62064020D01*
X45289428Y-62064019D01*
X45426279Y-62022505D01*
X45497387Y-62015502D01*
X45532940Y-62012000D01*
X45604260Y-62012000D01*
X45639813Y-62015502D01*
X45639813Y-62015502D01*
G37*
G36*
X43639813Y-62015502D02*
G01*
X43710921Y-62022505D01*
X43847772Y-62064019D01*
X43847775Y-62064020D01*
X43973894Y-62131432D01*
X44084443Y-62222157D01*
X44175168Y-62332706D01*
X44242580Y-62458825D01*
X44242581Y-62458828D01*
X44284095Y-62595679D01*
X44298112Y-62738000D01*
X44284095Y-62880321D01*
X44242581Y-63017172D01*
X44242580Y-63017175D01*
X44175168Y-63143294D01*
X44084443Y-63253843D01*
X43973894Y-63344568D01*
X43847775Y-63411980D01*
X43847772Y-63411981D01*
X43710921Y-63453495D01*
X43639813Y-63460498D01*
X43604260Y-63464000D01*
X43532940Y-63464000D01*
X43497387Y-63460498D01*
X43426279Y-63453495D01*
X43289428Y-63411981D01*
X43289425Y-63411980D01*
X43163306Y-63344568D01*
X43052757Y-63253843D01*
X42962032Y-63143294D01*
X42894620Y-63017175D01*
X42894619Y-63017172D01*
X42853105Y-62880321D01*
X42839088Y-62738000D01*
X42853105Y-62595679D01*
X42894619Y-62458828D01*
X42894620Y-62458825D01*
X42962032Y-62332706D01*
X43052757Y-62222157D01*
X43163306Y-62131432D01*
X43289425Y-62064020D01*
X43289428Y-62064019D01*
X43426279Y-62022505D01*
X43497387Y-62015502D01*
X43532940Y-62012000D01*
X43604260Y-62012000D01*
X43639813Y-62015502D01*
X43639813Y-62015502D01*
G37*
G36*
X41639813Y-62015502D02*
G01*
X41710921Y-62022505D01*
X41847772Y-62064019D01*
X41847775Y-62064020D01*
X41973894Y-62131432D01*
X42084443Y-62222157D01*
X42175168Y-62332706D01*
X42242580Y-62458825D01*
X42242581Y-62458828D01*
X42284095Y-62595679D01*
X42298112Y-62738000D01*
X42284095Y-62880321D01*
X42242581Y-63017172D01*
X42242580Y-63017175D01*
X42175168Y-63143294D01*
X42084443Y-63253843D01*
X41973894Y-63344568D01*
X41847775Y-63411980D01*
X41847772Y-63411981D01*
X41710921Y-63453495D01*
X41639813Y-63460498D01*
X41604260Y-63464000D01*
X41532940Y-63464000D01*
X41497387Y-63460498D01*
X41426279Y-63453495D01*
X41289428Y-63411981D01*
X41289425Y-63411980D01*
X41163306Y-63344568D01*
X41052757Y-63253843D01*
X40962032Y-63143294D01*
X40894620Y-63017175D01*
X40894619Y-63017172D01*
X40853105Y-62880321D01*
X40839088Y-62738000D01*
X40853105Y-62595679D01*
X40894619Y-62458828D01*
X40894620Y-62458825D01*
X40962032Y-62332706D01*
X41052757Y-62222157D01*
X41163306Y-62131432D01*
X41289425Y-62064020D01*
X41289428Y-62064019D01*
X41426279Y-62022505D01*
X41497387Y-62015502D01*
X41532940Y-62012000D01*
X41604260Y-62012000D01*
X41639813Y-62015502D01*
X41639813Y-62015502D01*
G37*
G36*
X39639813Y-62015502D02*
G01*
X39710921Y-62022505D01*
X39847772Y-62064019D01*
X39847775Y-62064020D01*
X39973894Y-62131432D01*
X40084443Y-62222157D01*
X40175168Y-62332706D01*
X40242580Y-62458825D01*
X40242581Y-62458828D01*
X40284095Y-62595679D01*
X40298112Y-62738000D01*
X40284095Y-62880321D01*
X40242581Y-63017172D01*
X40242580Y-63017175D01*
X40175168Y-63143294D01*
X40084443Y-63253843D01*
X39973894Y-63344568D01*
X39847775Y-63411980D01*
X39847772Y-63411981D01*
X39710921Y-63453495D01*
X39639813Y-63460498D01*
X39604260Y-63464000D01*
X39532940Y-63464000D01*
X39497387Y-63460498D01*
X39426279Y-63453495D01*
X39289428Y-63411981D01*
X39289425Y-63411980D01*
X39163306Y-63344568D01*
X39052757Y-63253843D01*
X38962032Y-63143294D01*
X38894620Y-63017175D01*
X38894619Y-63017172D01*
X38853105Y-62880321D01*
X38839088Y-62738000D01*
X38853105Y-62595679D01*
X38894619Y-62458828D01*
X38894620Y-62458825D01*
X38962032Y-62332706D01*
X39052757Y-62222157D01*
X39163306Y-62131432D01*
X39289425Y-62064020D01*
X39289428Y-62064019D01*
X39426279Y-62022505D01*
X39497387Y-62015502D01*
X39532940Y-62012000D01*
X39604260Y-62012000D01*
X39639813Y-62015502D01*
X39639813Y-62015502D01*
G37*
G36*
X39187213Y-56121702D02*
G01*
X39258321Y-56128705D01*
X39395172Y-56170219D01*
X39395175Y-56170220D01*
X39521294Y-56237632D01*
X39631843Y-56328357D01*
X39722568Y-56438906D01*
X39789980Y-56565025D01*
X39789981Y-56565028D01*
X39831495Y-56701879D01*
X39845512Y-56844200D01*
X39831495Y-56986521D01*
X39789981Y-57123372D01*
X39789980Y-57123375D01*
X39722568Y-57249494D01*
X39631843Y-57360043D01*
X39521294Y-57450768D01*
X39395175Y-57518180D01*
X39395172Y-57518181D01*
X39258321Y-57559695D01*
X39187213Y-57566698D01*
X39151660Y-57570200D01*
X39080340Y-57570200D01*
X39044787Y-57566698D01*
X38973679Y-57559695D01*
X38836828Y-57518181D01*
X38836825Y-57518180D01*
X38710706Y-57450768D01*
X38600157Y-57360043D01*
X38509432Y-57249494D01*
X38442020Y-57123375D01*
X38442019Y-57123372D01*
X38400505Y-56986521D01*
X38386488Y-56844200D01*
X38400505Y-56701879D01*
X38442019Y-56565028D01*
X38442020Y-56565025D01*
X38509432Y-56438906D01*
X38600157Y-56328357D01*
X38710706Y-56237632D01*
X38836825Y-56170220D01*
X38836828Y-56170219D01*
X38973679Y-56128705D01*
X39044787Y-56121702D01*
X39080340Y-56118200D01*
X39151660Y-56118200D01*
X39187213Y-56121702D01*
X39187213Y-56121702D01*
G37*
G36*
X39187213Y-54121702D02*
G01*
X39258321Y-54128705D01*
X39395172Y-54170219D01*
X39395175Y-54170220D01*
X39521294Y-54237632D01*
X39631843Y-54328357D01*
X39722568Y-54438906D01*
X39789980Y-54565025D01*
X39789981Y-54565028D01*
X39831495Y-54701879D01*
X39845512Y-54844200D01*
X39831495Y-54986521D01*
X39789981Y-55123372D01*
X39789980Y-55123375D01*
X39722568Y-55249494D01*
X39631843Y-55360043D01*
X39521294Y-55450768D01*
X39395175Y-55518180D01*
X39395172Y-55518181D01*
X39258321Y-55559695D01*
X39187213Y-55566698D01*
X39151660Y-55570200D01*
X39080340Y-55570200D01*
X39044787Y-55566698D01*
X38973679Y-55559695D01*
X38836828Y-55518181D01*
X38836825Y-55518180D01*
X38710706Y-55450768D01*
X38600157Y-55360043D01*
X38509432Y-55249494D01*
X38442020Y-55123375D01*
X38442019Y-55123372D01*
X38400505Y-54986521D01*
X38386488Y-54844200D01*
X38400505Y-54701879D01*
X38442019Y-54565028D01*
X38442020Y-54565025D01*
X38509432Y-54438906D01*
X38600157Y-54328357D01*
X38710706Y-54237632D01*
X38836825Y-54170220D01*
X38836828Y-54170219D01*
X38973679Y-54128705D01*
X39044787Y-54121702D01*
X39080340Y-54118200D01*
X39151660Y-54118200D01*
X39187213Y-54121702D01*
X39187213Y-54121702D01*
G37*
G36*
X39187213Y-52121702D02*
G01*
X39258321Y-52128705D01*
X39395172Y-52170219D01*
X39395175Y-52170220D01*
X39521294Y-52237632D01*
X39631843Y-52328357D01*
X39722568Y-52438906D01*
X39789980Y-52565025D01*
X39789981Y-52565028D01*
X39831495Y-52701879D01*
X39845512Y-52844200D01*
X39831495Y-52986521D01*
X39789981Y-53123372D01*
X39789980Y-53123375D01*
X39722568Y-53249494D01*
X39631843Y-53360043D01*
X39521294Y-53450768D01*
X39395175Y-53518180D01*
X39395172Y-53518181D01*
X39258321Y-53559695D01*
X39187213Y-53566698D01*
X39151660Y-53570200D01*
X39080340Y-53570200D01*
X39044787Y-53566698D01*
X38973679Y-53559695D01*
X38836828Y-53518181D01*
X38836825Y-53518180D01*
X38710706Y-53450768D01*
X38600157Y-53360043D01*
X38509432Y-53249494D01*
X38442020Y-53123375D01*
X38442019Y-53123372D01*
X38400505Y-52986521D01*
X38386488Y-52844200D01*
X38400505Y-52701879D01*
X38442019Y-52565028D01*
X38442020Y-52565025D01*
X38509432Y-52438906D01*
X38600157Y-52328357D01*
X38710706Y-52237632D01*
X38836825Y-52170220D01*
X38836828Y-52170219D01*
X38973679Y-52128705D01*
X39044787Y-52121702D01*
X39080340Y-52118200D01*
X39151660Y-52118200D01*
X39187213Y-52121702D01*
X39187213Y-52121702D01*
G37*
G36*
X39187213Y-50121702D02*
G01*
X39258321Y-50128705D01*
X39395172Y-50170219D01*
X39395175Y-50170220D01*
X39521294Y-50237632D01*
X39631843Y-50328357D01*
X39722568Y-50438906D01*
X39789980Y-50565025D01*
X39789981Y-50565028D01*
X39831495Y-50701879D01*
X39845512Y-50844200D01*
X39831495Y-50986521D01*
X39789981Y-51123372D01*
X39789980Y-51123375D01*
X39722568Y-51249494D01*
X39631843Y-51360043D01*
X39521294Y-51450768D01*
X39395175Y-51518180D01*
X39395172Y-51518181D01*
X39258321Y-51559695D01*
X39187213Y-51566698D01*
X39151660Y-51570200D01*
X39080340Y-51570200D01*
X39044787Y-51566698D01*
X38973679Y-51559695D01*
X38836828Y-51518181D01*
X38836825Y-51518180D01*
X38710706Y-51450768D01*
X38600157Y-51360043D01*
X38509432Y-51249494D01*
X38442020Y-51123375D01*
X38442019Y-51123372D01*
X38400505Y-50986521D01*
X38386488Y-50844200D01*
X38400505Y-50701879D01*
X38442019Y-50565028D01*
X38442020Y-50565025D01*
X38509432Y-50438906D01*
X38600157Y-50328357D01*
X38710706Y-50237632D01*
X38836825Y-50170220D01*
X38836828Y-50170219D01*
X38973679Y-50128705D01*
X39044787Y-50121702D01*
X39080340Y-50118200D01*
X39151660Y-50118200D01*
X39187213Y-50121702D01*
X39187213Y-50121702D01*
G37*
G36*
X39842000Y-49570200D02*
G01*
X38390000Y-49570200D01*
X38390000Y-48118200D01*
X39842000Y-48118200D01*
X39842000Y-49570200D01*
X39842000Y-49570200D01*
G37*
M02*
